<?xml version="1.0" encoding="UTF-8"?>
<svg version="1.1" viewBox="104.2 22.6 197 328.2" xmlns="http://www.w3.org/2000/svg">
<path d="m174.19 22.95c-2.273 1.164-2.12-2.665-2.12 53.147 0 57.399-0.307 52.001 3.062 53.894l1.593 0.895h25.426c30.375 0 29.717 0.093 31.017-4.381 0.736-2.535 0.735-71.206-2e-3 -73.327-1.18-3.4-3.438-5.067-11.422-8.433-6.564-2.767-25.809-12.367-32.377-16.15-9.254-5.331-13.04-6.739-15.177-5.645m-65.807 131.2c-1.97 0.703-3.044 1.866-3.651 3.951-0.872 3.001-0.608 187.52 0.271 189.13 1.981 3.619 1.251 3.534 30.183 3.534 26.17 0 26.737-0.03 28.507-1.519 2.441-2.054 2.27 1.373 2.468-49.69 0.171-44.077 0.21-46.265 0.847-47.723 0.845-1.931 2.943-3.783 6.539-5.772 7.396-4.091 21.115-11.166 24.485-12.627 2.068-0.897 5.211-2.254 6.983-3.015 3.987-1.713 11.098-5.343 14.275-7.287 2.829-1.732 8.116-4.418 10.702-5.437 5.02-1.978 3.483-1.889 36.08-2.098l30.259-0.195 1.594-0.895c3.259-1.832 3.048 0.131 3.163-29.364 0.119-30.584 0.229-29.826-4.499-31.139-2.242-0.623-186.45-0.478-188.21 0.148m137.24 83.615c-2.464 0.33-4.07 1.238-5.094 2.882l-0.781 1.253v52.104 52.104l0.749 1.428c0.526 1.001 1.272 1.696 2.498 2.327l1.748 0.9h25.623 25.623l1.749-0.9c1.226-0.631 1.971-1.326 2.497-2.327l0.749-1.428v-51.925-51.925l-0.749-1.428c-0.525-1.001-1.272-1.697-2.497-2.328l-1.747-0.899-24.182-0.053c-13.301-0.029-25.084 0.068-26.186 0.215" fill="#0babdc" fill-rule="evenodd"/>
</svg>
