<svg id="svg" xmlns="http://www.w3.org/2000/svg" xmlns:xlink="http://www.w3.org/1999/xlink" version="1.1" viewBox="104.2 22.6 197 328.2"><g id="svgg"><path id="path0" d="M174.188 22.950 C 171.915 24.114,172.068 20.285,172.068 76.097 C 172.068 133.496,171.761 128.098,175.130 129.991 L 176.723 130.886 202.149 130.886 C 232.524 130.886,231.866 130.979,233.166 126.505 C 233.902 123.970,233.901 55.299,233.164 53.178 C 231.984 49.778,229.726 48.111,221.742 44.745 C 215.178 41.978,195.933 32.378,189.365 28.595 C 180.111 23.264,176.325 21.856,174.188 22.950 M108.381 154.148 C 106.411 154.851,105.337 156.014,104.730 158.099 C 103.858 161.100,104.122 345.621,105.001 347.227 C 106.982 350.846,106.252 350.761,135.184 350.761 C 161.354 350.761,161.921 350.731,163.691 349.242 C 166.132 347.188,165.961 350.615,166.159 299.552 C 166.330 255.475,166.369 253.287,167.006 251.829 C 167.851 249.898,169.949 248.046,173.545 246.057 C 180.941 241.966,194.660 234.891,198.030 233.430 C 200.098 232.533,203.241 231.176,205.013 230.415 C 209.000 228.702,216.111 225.072,219.288 223.128 C 222.117 221.396,227.404 218.710,229.990 217.691 C 235.010 215.713,233.473 215.802,266.070 215.593 L 296.329 215.398 297.923 214.503 C 301.182 212.671,300.971 214.634,301.086 185.139 C 301.205 154.555,301.315 155.313,296.587 154.000 C 294.345 153.377,110.137 153.522,108.381 154.148 M245.624 237.763 C 243.160 238.093,241.554 239.001,240.530 240.645 L 239.749 241.898 239.749 294.002 L 239.749 346.106 240.498 347.534 C 241.024 348.535,241.770 349.230,242.996 349.861 L 244.744 350.761 270.367 350.761 L 295.990 350.761 297.739 349.861 C 298.965 349.230,299.710 348.535,300.236 347.534 L 300.985 346.106 300.985 294.181 L 300.985 242.256 300.236 240.828 C 299.711 239.827,298.964 239.131,297.739 238.500 L 295.992 237.601 271.810 237.548 C 258.509 237.519,246.726 237.616,245.624 237.763 " stroke="none" fill="#0babdc" fill-rule="evenodd"/></g></svg>